<svg id="Layer_1" data-name="Layer 1" xmlns="http://www.w3.org/2000/svg" viewBox="0 0 1920 1080"><defs><style>.cls-1{fill:#ec4646;}.cls-2{fill:#ea2f2f;}.cls-3{fill:#663f3f;}.cls-4{fill:#664a4a;}.cls-5{fill:#665f5f;}.cls-6{fill:#8aeef9;}.cls-7{fill:#51c2d5;}.cls-8{opacity:0.5;}.cls-9{font-size:204.29px;font-family:HansonBold, Hanson;}.cls-10{letter-spacing:-0.1em;}.cls-11{letter-spacing:-0.13em;}.cls-12{letter-spacing:-0.13em;}.cls-13{letter-spacing:-0.02em;}</style></defs><rect class="cls-1" x="428.47" y="36.95" width="95.41" height="613.34" rx="47.7"/><rect class="cls-1" x="1382.56" y="27" width="95.41" height="613.34" rx="47.7"/><rect class="cls-2" x="571.59" y="353.57" width="74.96" height="306.67" rx="37.48"/><rect class="cls-2" x="1259.89" y="348.6" width="74.96" height="306.67" rx="37.48"/><rect class="cls-3" x="694.25" y="173.45" width="74.96" height="531.56" rx="37.48"/><rect class="cls-4" x="1137.22" y="76.21" width="74.96" height="531.56" rx="37.48"/><rect class="cls-5" x="816.92" y="280.45" width="61.33" height="374.82" rx="30.67"/><rect class="cls-6" x="1028.18" y="260.55" width="61.33" height="374.82" rx="30.67"/><rect class="cls-7" x="925.96" y="398.82" width="54.52" height="412.27" rx="27.26"/><g class="cls-8"><rect class="cls-1" x="442.03" y="53" width="95.41" height="613.34" rx="47.7"/><rect class="cls-1" x="1396.12" y="43.05" width="95.41" height="613.34" rx="47.7"/><rect class="cls-2" x="585.14" y="369.62" width="74.96" height="306.67" rx="37.48"/><rect class="cls-2" x="1273.45" y="364.64" width="74.96" height="306.67" rx="37.48"/><rect class="cls-3" x="707.81" y="189.5" width="74.96" height="531.56" rx="37.48"/><rect class="cls-4" x="1150.78" y="92.26" width="74.96" height="531.56" rx="37.48"/><rect class="cls-5" x="830.48" y="296.49" width="61.33" height="374.82" rx="30.67"/><rect class="cls-6" x="1041.74" y="276.59" width="61.33" height="374.82" rx="30.67"/><rect class="cls-7" x="939.52" y="414.87" width="54.52" height="412.27" rx="27.26"/></g><text class="cls-9" transform="translate(479.62 984.85)"><tspan class="cls-10">W</tspan><tspan class="cls-11" x="270.88" y="0">a</tspan><tspan class="cls-12" x="423.49" y="0">v</tspan><tspan class="cls-13" x="597.74" y="0">e</tspan><tspan x="774.25" y="0">o</tspan></text></svg>