<svg id="Layer_1" data-name="Layer 1" xmlns="http://www.w3.org/2000/svg" viewBox="0 0 1920 1080"><defs><style>.cls-1{fill:#ec4646;}.cls-2{fill:#ea2f2f;}.cls-3{fill:#663f3f;}.cls-4{fill:#664a4a;}.cls-5{fill:#665f5f;}.cls-6{fill:#8aeef9;}.cls-7{fill:#51c2d5;}.cls-8{opacity:0.5;}</style></defs><rect class="cls-1" x="428.47" y="36.95" width="95.41" height="613.34" rx="47.7"/><rect class="cls-1" x="1382.56" y="27" width="95.41" height="613.34" rx="47.7"/><rect class="cls-2" x="571.59" y="353.57" width="74.96" height="306.67" rx="37.48"/><rect class="cls-2" x="1259.89" y="348.6" width="74.96" height="306.67" rx="37.48"/><rect class="cls-3" x="694.25" y="173.45" width="74.96" height="531.56" rx="37.48"/><rect class="cls-4" x="1137.22" y="76.21" width="74.96" height="531.56" rx="37.48"/><rect class="cls-5" x="816.92" y="280.45" width="61.33" height="374.82" rx="30.67"/><rect class="cls-6" x="1028.18" y="260.55" width="61.33" height="374.82" rx="30.67"/><rect class="cls-7" x="925.96" y="398.82" width="54.52" height="412.27" rx="27.26"/><g class="cls-8"><rect class="cls-1" x="442.03" y="53" width="95.41" height="613.34" rx="47.7"/><rect class="cls-1" x="1396.12" y="43.05" width="95.41" height="613.34" rx="47.7"/><rect class="cls-2" x="585.14" y="369.62" width="74.96" height="306.67" rx="37.48"/><rect class="cls-2" x="1273.45" y="364.64" width="74.96" height="306.67" rx="37.48"/><rect class="cls-3" x="707.81" y="189.5" width="74.96" height="531.56" rx="37.48"/><rect class="cls-4" x="1150.78" y="92.26" width="74.96" height="531.56" rx="37.48"/><rect class="cls-5" x="830.48" y="296.49" width="61.33" height="374.82" rx="30.67"/><rect class="cls-6" x="1041.74" y="276.59" width="61.33" height="374.82" rx="30.67"/><rect class="cls-7" x="939.52" y="414.87" width="54.52" height="412.27" rx="27.26"/></g><path d="M765,841.44,705,984.23l.2.62h-46l.2-.62-33.91-75.79L592,984.85H546L485.14,841.44h50.25l33.5,81.1,33.51-81.1H648l33.91,80.28L715,841.44Z"/><path d="M924.35,985.05h-47q0-5.1-.2-10.83-21.66,12.87-50,12.87-8.39,0-14.2-.2t-14.4-1A105.59,105.59,0,0,1,784,983.62a74.79,74.79,0,0,1-12.46-4.29,35.2,35.2,0,0,1-10.62-6.84,31,31,0,0,1-6.74-10.22,34.81,34.81,0,0,1-2.66-13.79,24.34,24.34,0,0,1,6.23-16.65q6.24-7,17.06-11.13a116.7,116.7,0,0,1,23.7-6,187.14,187.14,0,0,1,27.78-1.94q25.34,0,45.76,7.56-4.08-12.25-13.79-16t-30.74-3.78a224,224,0,0,0-33,2.35q-15.84,2.34-20.23,3.67c-2.93.89-5.41,1.67-7.46,2.35l-10.62-32.27a211.68,211.68,0,0,1,74.16-12.87q8.58,0,16.75.51a184.57,184.57,0,0,1,19.41,2.45,114.7,114.7,0,0,1,20.12,5.21,62,62,0,0,1,16.85,9.5,38.14,38.14,0,0,1,11.65,14.4q5.93,13.49,7.56,34T924.35,985.05Zm-91.93-28a111.19,111.19,0,0,0,27.38-3.16q12.45-3.17,14.3-5.82v-2.25q-5.73-5.31-39.23-5.31-16.95,0-24.31,1.94t-7.35,6Q803.21,957.06,832.42,957.06Z"/><path d="M1042.84,866.36h52.71l-61.09,118.49h-62.3L911.07,866.36h53.12l39,76.61Z"/><path d="M1169.09,863.71q21,0,36.57,3.67a73.87,73.87,0,0,1,27,12.06,48,48,0,0,1,16.75,22.77q5.31,14.4,3.68,34.63H1131.7q1,5.52,10,9t27,3.47a242,242,0,0,0,31.36-2,211.23,211.23,0,0,0,23.59-4.09l7.77-2,20.42,33.09a15.19,15.19,0,0,1-2.24,1.13,82.86,82.86,0,0,1-8.28,2.55,150.81,150.81,0,0,1-15,3.27q-8.38,1.43-23.29,2.55t-32.69,1.13a201,201,0,0,1-36.26-2.86q-15.42-2.87-25.12-8a46.43,46.43,0,0,1-15.63-12.87,45.67,45.67,0,0,1-8.17-16.55,82.76,82.76,0,0,1-2.25-20.43q0-28.59,21.76-44.53T1169.09,863.71Zm.41,36.56a97.05,97.05,0,0,0-19.21,1.64q-8,1.64-11.64,4.19a20.06,20.06,0,0,0-5.31,5,8.78,8.78,0,0,0-1.64,4.9h73.14q0-6.74-8.07-11.23T1169.5,900.27Z"/><path d="M1345.59,865.75a248.92,248.92,0,0,1,27.17,1.33,117.18,117.18,0,0,1,24.11,5.31,61.7,61.7,0,0,1,20,10.52,47,47,0,0,1,12.87,17.47q4.9,10.92,4.9,25.63,0,16.75-6,28.6a44.57,44.57,0,0,1-17.87,18.7,86.86,86.86,0,0,1-27.38,9.8,197.87,197.87,0,0,1-36.56,3q-21.45,0-37-3.06a83.39,83.39,0,0,1-27-9.91,42.75,42.75,0,0,1-17.06-18.59q-5.62-11.75-5.62-28.5,0-14.29,4.6-25.12A46.45,46.45,0,0,1,1277,883.52a59.28,59.28,0,0,1,18.8-10.62,107.61,107.61,0,0,1,23.18-5.62A211.32,211.32,0,0,1,1345.59,865.75Zm1.64,86.82q18,0,27.47-6t9.5-20.53a24.19,24.19,0,0,0-3.68-13.58,22,22,0,0,0-9.7-8.28,55.59,55.59,0,0,0-11.85-3.77,65.06,65.06,0,0,0-12.36-1.13,61.86,61.86,0,0,0-9.39.72,47.75,47.75,0,0,0-9.61,2.55,30.77,30.77,0,0,0-8.47,4.7,22.61,22.61,0,0,0-8.28,17.77q0,14.1,8.89,20.84T1347.23,952.57Z"/></svg>